#N canvas 0 22 1436 856 10;
#X obj 759 170 spigot;
#X obj 844 179 tgl 15 0 empty empty empty 17 7 0 10 -262144 -1 -1 1
1;
#X msg 1014 423 symbol oud-samples/trill3.wav;
#X msg 1014 470 symbol oud-samples/short-glissdown.1.wav;
#X msg 1014 559 symbol oud-samples/lowD1.wav;
#X msg 1014 515 symbol oud-samples/harm-allstrings.1.wav;
#X obj 1014 536 store-sample harm;
#X obj 1014 444 store-sample trill;
#X obj 1014 491 store-sample gliss;
#X obj 1014 580 store-sample lowD;
#X text 1066 387 Loading sound files into memory;
#X obj 992 382 loadbang;
#X obj 809 1418 hsl 128 15 0 1 0 0 empty empty empty -2 -6 0 8 -262144
-1 -1 9100 1;
#X floatatom 801 1441 5 0 0 0 - - -;
#X obj 657 1493 dac~;
#X obj 664 1468 *~;
#X text 722 126 Volume;
#X text 723 108 2) Adjust the volume;
#X msg 1100 144 \; pd dsp 1;
#X msg 1101 178 \; pd dsp 0;
#X text 960 812 accel.pd Lab 4 Music 250a \, Autumn 2010 modified from
accel_osc.pd by Luke Dahl 10/13/09;
#X obj -68 281 arduino 1;
#X obj 759 195 route analog;
#X text -29 85 reporting on/off;
#X obj 760 220 route 0 1 2;
#X msg -43 107 open 0;
#N canvas 157 469 525 433 serin 0;
#X obj 180 61 cnv 15 15 15 empty \$0-number-canvas 0 4 8 0 14 -233017
-1 0;
#X obj 200 225 s \$0-number-canvas;
#X obj 60 61 hradio 15 1 1 8 empty empty empty 0 -6 0 8 -225271 -1
-1 0;
#X obj 60 13 inlet;
#X msg 200 202 label \$1;
#X obj 200 180 makefilename %d;
#X obj 59 108 int;
#X msg 59 206 open \$1;
#X obj 59 377 outlet;
#X msg 201 306 set \$1 \$2;
#X obj 59 266 trigger bang anything;
#X obj 201 286 list;
#X obj 383 383 outlet;
#X obj 384 22 netreceive 34567;
#X obj 477 43 tgl 15 0 empty empty empty 0 -6 0 10 -262144 -1 -1 0
1;
#X obj 384 41 bng 15 250 50 0 empty empty empty 0 -6 0 10 -262144 -1
-1;
#X obj 187 24 delay 15000;
#X text 345 379 close;
#X text 209 4 for open/close automation in Makefile;
#N canvas 698 22 318 215 reset 0;
#X obj 65 24 inlet;
#X obj 66 58 bang;
#X obj 66 150 send ARDUINO_TEST_RESET;
#X msg 66 129 0;
#X msg 111 99 1;
#X obj 111 120 send ARDUINO_PINMODE_RESET;
#X connect 0 0 1 0;
#X connect 1 0 3 0;
#X connect 1 0 4 0;
#X connect 3 0 2 0;
#X connect 4 0 5 0;
#X restore 172 111 pd reset guis;
#X connect 2 0 6 0;
#X connect 2 0 19 0;
#X connect 3 0 2 0;
#X connect 4 0 1 0;
#X connect 5 0 4 0;
#X connect 6 0 5 0;
#X connect 6 0 7 0;
#X connect 7 0 10 0;
#X connect 9 0 8 0;
#X connect 10 0 8 0;
#X connect 10 1 11 0;
#X connect 11 0 9 0;
#X connect 13 0 15 0;
#X connect 13 1 14 0;
#X connect 15 0 16 0;
#X connect 15 0 12 0;
#X connect 16 0 2 0;
#X coords 0 -1 1 1 136 17 1 60 60;
#X restore -43 82 pd serin;
#X text -45 63 serial port #;
#X msg 9 107 close;
#N canvas 0 22 450 300 (subpatch) 0;
#X coords 0 1 100 -1 200 70 1;
#X restore -85 64 graph;
#X text -87 28 SETUP PARAMETERS;
#X obj -85 170 t b b;
#X msg -70 201 analogIns 0 1;
#X msg -70 247 analogIns 2 1;
#X msg -70 223 analogIns 1 1;
#X text 860 178 input messages on/off;
#X text -88 46 1) select serial port;
#X obj -85 140 loadbang;
#X text 700 91 comment;
#X text 652 106 comment;
#X obj -108 140 bng 15 250 50 0 empty empty empty 17 7 0 10 -262144
-1 -1;
#X obj 613 300 delta;
#X obj 647 299 delta;
#X obj 683 300 delta;
#X obj 306 416 pow 2;
#X obj 420 415 pow 2;
#X obj 373 416 pow 2;
#X obj 319 465 +;
#X obj 335 499 +;
#X obj 299 537 average 4;
#X obj 292 565 * 100;
#X obj 306 591 threshold 2 10 1 10;
#X obj 33 894 envgen 200 140 1 0  ;
#X obj 75 792 abs;
#X obj 58 678 gate 2;
#X msg 59 646 1;
#X obj 58 721 t b f;
#X obj -37 698 delay 1;
#X msg 20 644 2;
#X obj 63 1063 line~;
#X obj 258 1095 *~;
#X obj -42 842 bng 15 250 50 0 empty empty empty 17 7 0 10 -262144
-1 -1;
#X obj 391 1053 envgen 200 140 1 0  ;
#X obj 433 951 abs;
#X obj 416 837 gate 2;
#X msg 417 805 1;
#X obj 416 880 t b f;
#X obj 321 857 delay 1;
#X msg 378 803 2;
#X obj 421 1222 line~;
#X obj 555 1281 *~;
#X obj 316 1001 bng 15 250 50 0 empty empty empty 17 7 0 10 -262144
-1 -1;
#X obj 649 1040 envgen 200 140 1 0  ;
#X obj 691 938 abs;
#X obj 674 824 gate 2;
#X msg 675 792 1;
#X obj 674 867 t b f;
#X obj 579 844 delay 1;
#X msg 636 790 2;
#X obj 679 1209 line~;
#X obj 813 1268 *~;
#X obj 574 988 bng 15 250 50 0 empty empty empty 17 7 0 10 -262144
-1 -1;
#X floatatom 381 1301 5 0 0 0 - - -;
#X obj 381 1263 snapshot~;
#X obj 294 1182 tgl 15 0 empty empty empty 17 7 0 10 -262144 -1 -1
1 1;
#X obj 320 1219 metro 20;
#X obj 306 615 t b b;
#X obj 577 329 t f f b;
#X obj 637 329 t f f b;
#X obj 696 330 t f f b;
#X obj 814 1220 osc~ 100;
#X msg 680 968 \$1 100 0.1 500;
#X obj 889 1040 envgen 200 140 1 0  ;
#X obj 891 1226 line~;
#X obj 1025 1285 *~;
#X obj 1113 1211 noise~;
#X obj 1060 1246 lop~ 200;
#X obj -112 1098 envgen 200 140 1 0  ;
#X obj -110 1284 line~;
#X obj 24 1343 *~;
#X obj 112 1269 noise~;
#X msg -119 1038 \$1 200;
#X obj 59 1303 lop~ 40;
#X msg 882 980 \$1 10;
#X msg 64 822 \$1 100 0.01 500;
#X obj 565 1208 phasor~ 100;
#X msg 422 981 \$1 10 0.01 500;
#X obj 563 1238 expr~ $v1 > 0.5;
#X obj 265 1051 phasor~ 100;
#X connect 0 0 22 0;
#X connect 1 0 0 1;
#X connect 2 0 7 0;
#X connect 3 0 8 0;
#X connect 4 0 9 0;
#X connect 5 0 6 0;
#X connect 11 0 2 0;
#X connect 11 0 3 0;
#X connect 11 0 5 0;
#X connect 11 0 4 0;
#X connect 12 0 13 0;
#X connect 13 0 15 1;
#X connect 15 0 14 0;
#X connect 15 0 14 1;
#X connect 21 0 0 0;
#X connect 22 0 24 0;
#X connect 24 0 41 0;
#X connect 24 1 42 0;
#X connect 24 2 43 0;
#X connect 25 0 21 0;
#X connect 26 0 25 0;
#X connect 26 1 28 0;
#X connect 28 0 21 0;
#X connect 31 1 32 0;
#X connect 31 1 34 0;
#X connect 31 1 33 0;
#X connect 32 0 21 0;
#X connect 33 0 21 0;
#X connect 34 0 21 0;
#X connect 37 0 31 0;
#X connect 40 0 31 0;
#X connect 41 0 87 0;
#X connect 42 0 88 0;
#X connect 43 0 89 0;
#X connect 44 0 47 0;
#X connect 45 0 48 1;
#X connect 46 0 47 1;
#X connect 47 0 48 0;
#X connect 48 0 49 0;
#X connect 49 0 50 0;
#X connect 50 0 51 0;
#X connect 51 0 86 0;
#X connect 52 0 59 0;
#X connect 53 0 104 0;
#X connect 54 0 56 0;
#X connect 55 0 54 0;
#X connect 56 0 57 0;
#X connect 56 1 53 0;
#X connect 57 0 58 0;
#X connect 58 0 54 0;
#X connect 59 0 60 1;
#X connect 60 0 15 0;
#X connect 61 0 52 0;
#X connect 62 0 69 0;
#X connect 63 0 106 0;
#X connect 64 0 66 0;
#X connect 65 0 64 0;
#X connect 66 0 67 0;
#X connect 66 1 63 0;
#X connect 67 0 68 0;
#X connect 68 0 64 0;
#X connect 69 0 70 1;
#X connect 69 0 83 0;
#X connect 70 0 15 0;
#X connect 71 0 62 0;
#X connect 72 0 79 0;
#X connect 73 0 91 0;
#X connect 73 0 103 0;
#X connect 74 0 76 0;
#X connect 75 0 74 0;
#X connect 76 0 77 0;
#X connect 76 1 73 0;
#X connect 77 0 78 0;
#X connect 78 0 74 0;
#X connect 79 0 80 1;
#X connect 80 0 15 0;
#X connect 81 0 72 0;
#X connect 83 0 82 0;
#X connect 84 0 85 0;
#X connect 85 0 83 0;
#X connect 86 1 52 0;
#X connect 86 1 62 0;
#X connect 86 1 72 0;
#X connect 86 1 92 0;
#X connect 86 1 97 0;
#X connect 87 0 54 1;
#X connect 87 1 44 0;
#X connect 87 2 55 0;
#X connect 88 0 46 0;
#X connect 88 1 64 1;
#X connect 88 2 65 0;
#X connect 89 0 45 0;
#X connect 89 1 74 1;
#X connect 89 2 75 0;
#X connect 90 0 80 0;
#X connect 91 0 72 0;
#X connect 92 0 93 0;
#X connect 93 0 94 1;
#X connect 94 0 15 0;
#X connect 95 0 96 0;
#X connect 96 0 94 0;
#X connect 97 0 98 0;
#X connect 98 0 99 1;
#X connect 99 0 15 0;
#X connect 100 0 102 0;
#X connect 101 0 97 0;
#X connect 102 0 99 0;
#X connect 103 0 92 0;
#X connect 104 0 52 0;
#X connect 104 0 101 0;
#X connect 105 0 107 0;
#X connect 106 0 62 0;
#X connect 107 0 70 0;
#X connect 108 0 60 0;
