#N canvas 72 619 1170 933 10;
#X obj 345 221 inlet;
#X text 160 190 x;
#X text 207 188 y;
#X text 391 222 bang to calibrate;
#X obj 345 246 bng 15 250 50 0 empty empty empty 0 -6 0 8 -262144 -1
-1;
#X obj 589 487 delta;
#X obj 629 487 delta;
#X obj 669 487 delta;
#X obj 589 511 abs;
#X obj 629 511 abs;
#X obj 669 513 abs;
#X text 289 487 y;
#X text 335 487 z;
#X obj 215 406 snapshot~;
#X obj 293 408 snapshot~;
#X obj 360 408 snapshot~;
#X obj -57 406 snapshot~;
#X obj 23 406 snapshot~;
#X obj 117 408 snapshot~;
#X obj -49 310 metro 20;
#X obj 464 -45 loadbang;
#X obj 464 -22 s lb;
#X obj -49 270 r lb;
#X obj -49 291 tgl 15 0 empty empty empty 0 -6 0 8 -262144 -1 -1 1
1;
#X obj 301 384 delay 1;
#X obj 224 380 delay 2;
#X obj 40 385 delay 4;
#X obj 631 575 tgl 15 0 empty empty empty 0 -6 0 8 -262144 -1 -1 1
1;
#X obj 658 609 tgl 15 0 empty empty empty 0 -6 0 8 -262144 -1 -1 1
1;
#X obj 658 584 staytrue 1000;
#X text 679 607 Stillness detector;
#X floatatom 710 531 5 0 0 0 - - -;
#X floatatom -41 448 5 0 0 0 - - -;
#X floatatom 10 449 5 0 0 0 - - -;
#X floatatom 57 450 5 0 0 0 - - -;
#X obj 710 487 r lb;
#X text -124 651 uses: delta \, 3belowtresh \, staytrue \, accel-xover
;
#X obj 631 552 3belowthresh;
#X msg 370 -74 \; pd dsp 1;
#X text -69 531 (jerk \, impact \, etc): highpass part;
#X text -63 514 Sudden changes in acceleration;
#X text -123 581 By Matt Wright and Jesse Fox;
#X text -29 493 x;
#X text 19 493 y;
#X text 65 493 z;
#X text 226 504 tilt (lowpass part);
#X obj 117 384 delay 3;
#X obj -42 385 delay 5;
#X text 565 415 A very cheesy 'stillness detector':;
#X text 522 805 comment;
#X text -123 597 modified by Michael Gurevich Oct. 2006;
#X floatatom 32 211 5 0 0 0 - - -;
#X floatatom 97 210 5 0 0 0 - - -;
#X text 22 193 LF cutoff;
#X text 86 193 HF cutoff;
#X obj 22 310 accel-xover 3 10;
#X obj 140 309 accel-xover 3 10;
#X obj 251 307 accel-xover 3 10;
#X floatatom 507 587 5 0 0 0 - - -;
#X floatatom 551 612 5 0 0 0 - - -;
#X floatatom 575 641 5 0 0 0 - - -;
#X text 750 530 <----threshold;
#X floatatom 147 209 5 0 0 0 - - -;
#X floatatom 190 208 5 0 0 0 - - -;
#X floatatom 235 208 5 0 0 0 - - -;
#X text 25 177 xover frequencies;
#X floatatom 223 446 5 0 0 0 - - -;
#X floatatom 274 447 5 0 0 0 - - -;
#X floatatom 321 448 5 0 0 0 - - -;
#X obj 562 1 vsl 15 250 -100 100 0 0 empty empty empty 0 -8 0 8 -262144
-1 -1 12450 1;
#X text 564 254 X;
#X floatatom 562 268 6 0 0 0 - - -;
#X text 589 118 -0-;
#X obj 222 474 s xtilt;
#X obj 561 -46 r xtilt;
#X obj 32 136 r lb;
#X obj 560 -24 * 100;
#X text 248 190 z;
#X obj 614 1 vsl 15 250 -100 100 0 0 empty empty empty 0 -8 0 8 -262144
-1 -1 12450 1;
#X floatatom 614 268 6 0 0 0 - - -;
#X text 641 118 -0-;
#X obj 612 -24 * 100;
#X obj 666 1 vsl 15 250 -100 100 0 0 empty empty empty 0 -8 0 8 -262144
-1 -1 12450 1;
#X floatatom 666 268 6 0 0 0 - - -;
#X text 693 118 -0-;
#X obj 664 -24 * 100;
#X obj 613 -46 r ytilt;
#X obj 665 -46 r ztilt;
#X obj 273 474 s ytilt;
#X obj 322 473 s ztilt;
#X text 616 254 Y;
#X text 668 254 Z;
#X obj 760 1 vsl 15 250 -100 100 0 0 empty empty empty 0 -8 0 8 -262144
-1 -1 12450 1;
#X text 762 254 X;
#X floatatom 760 268 6 0 0 0 - - -;
#X text 787 118 -0-;
#X obj 758 -24 * 100;
#X obj 812 1 vsl 15 250 -100 100 0 0 empty empty empty 0 -8 0 8 -262144
-1 -1 12450 1;
#X floatatom 812 268 6 0 0 0 - - -;
#X text 839 118 -0-;
#X obj 810 -24 * 100;
#X obj 864 1 vsl 15 250 -100 100 0 0 empty empty empty 0 -8 0 8 -262144
-1 -1 12450 1;
#X floatatom 864 268 6 0 0 0 - - -;
#X text 891 118 -0-;
#X obj 862 -24 * 100;
#X text 814 254 Y;
#X text 866 254 Z;
#X obj -41 478 s xjrk;
#X obj 10 478 s yjrk;
#X obj 57 479 s zjrk;
#X obj 759 -46 r xjrk;
#X obj 811 -46 r yjrk;
#X obj 863 -45 r zjrk;
#X text 806 294 JERK;
#X text 608 294 TILT;
#X obj 564 462 r xtilt;
#X obj 616 462 r ytilt;
#X obj 668 462 r ztilt;
#X text 368 -96 turn on audio to run filters;
#X msg 32 160 3;
#X msg 97 159 10;
#X msg 710 510 0.05;
#X text -124 610 modified by Luke Dahl for use with iPods Oct. 2009
modified by Wendy Ju to use with accelerometers over Firmata Oct 2010
;
#X obj 187 71 spigot;
#X obj 220 25 tgl 15 0 empty empty empty 17 7 0 10 -262144 -1 -1 0
1;
#X obj 87 28 arduino 1;
#X obj 187 96 route analog;
#X text 6 -42 reporting on/off;
#X obj 188 124 route 0 1 2;
#N canvas 0 0 560 567 display 0;
#X obj 16 17 inlet;
#X obj 16 38 mapping/resample 100;
#X obj 16 60 outlet;
#X obj 64 60 inlet;
#X obj 64 81 mapping/resample 100;
#X obj 64 103 outlet;
#X obj 113 103 inlet;
#X obj 113 124 mapping/resample 100;
#X obj 113 146 outlet;
#X obj 70 300 receive ARDUINO_TEST_RESET;
#X connect 0 0 1 0;
#X connect 1 0 2 0;
#X connect 3 0 4 0;
#X connect 4 0 5 0;
#X connect 6 0 7 0;
#X connect 7 0 8 0;
#X connect 9 0 7 0;
#X connect 9 0 4 0;
#X connect 9 0 1 0;
#X restore 187 151 pd display values without pegging the CPU;
#X msg -8 -20 open 4;
#N canvas 157 469 525 433 serin 0;
#X obj 180 61 cnv 15 15 15 empty \$0-number-canvas 4 4 8 0 14 -233017
-1 0;
#X obj 200 225 s \$0-number-canvas;
#X obj 60 61 hradio 15 1 1 8 empty empty empty 0 -6 0 8 -225271 -1
-1 4;
#X obj 60 13 inlet;
#X msg 200 202 label \$1;
#X obj 200 180 makefilename %d;
#X obj 59 108 int;
#X msg 59 206 open \$1;
#X obj 59 377 outlet;
#X msg 201 306 set \$1 \$2;
#X obj 59 266 trigger bang anything;
#X obj 201 286 list;
#X obj 383 383 outlet;
#X obj 384 22 netreceive 34567;
#X obj 477 43 tgl 15 0 empty empty empty 0 -6 0 10 -262144 -1 -1 0
1;
#X obj 384 41 bng 15 250 50 0 empty empty empty 0 -6 0 10 -262144 -1
-1;
#X obj 187 24 delay 15000;
#X text 345 379 close;
#X text 209 4 for open/close automation in Makefile;
#N canvas 698 22 318 215 reset 0;
#X obj 65 24 inlet;
#X obj 66 58 bang;
#X obj 66 150 send ARDUINO_TEST_RESET;
#X msg 66 129 0;
#X msg 111 99 1;
#X obj 111 120 send ARDUINO_PINMODE_RESET;
#X connect 0 0 1 0;
#X connect 1 0 3 0;
#X connect 1 0 4 0;
#X connect 3 0 2 0;
#X connect 4 0 5 0;
#X restore 172 111 pd reset guis;
#X connect 2 0 6 0;
#X connect 2 0 19 0;
#X connect 3 0 2 0;
#X connect 4 0 1 0;
#X connect 5 0 4 0;
#X connect 6 0 5 0;
#X connect 6 0 7 0;
#X connect 7 0 10 0;
#X connect 9 0 8 0;
#X connect 10 0 8 0;
#X connect 10 1 11 0;
#X connect 11 0 9 0;
#X connect 13 0 15 0;
#X connect 13 1 14 0;
#X connect 15 0 16 0;
#X connect 15 0 12 0;
#X connect 16 0 2 0;
#X coords 0 -1 1 1 136 17 1 60 60;
#X restore -8 -45 pd serin;
#X text -10 -64 serial port #;
#X msg 93 -20 close;
#N canvas 0 22 450 300 (subpatch) 0;
#X coords 0 1 100 -1 200 70 1;
#X restore -50 -63 graph;
#X text -52 -99 SETUP PARAMETERS;
#X obj -50 43 t b b;
#X msg -23 65 analogIns 0 1;
#X msg -23 111 analogIns 2 1;
#X msg -23 87 analogIns 1 1;
#X text 243 20 input messages on/off;
#X text -53 -81 1) select serial port;
#X obj -50 13 loadbang;
#X text 112 -84;
#X text 160 -99;
#X connect 0 0 4 0;
#X connect 4 0 55 3;
#X connect 4 0 56 3;
#X connect 4 0 57 3;
#X connect 5 0 8 0;
#X connect 6 0 9 0;
#X connect 7 0 10 0;
#X connect 8 0 37 0;
#X connect 8 0 58 0;
#X connect 9 0 37 1;
#X connect 9 0 59 0;
#X connect 10 0 37 2;
#X connect 10 0 60 0;
#X connect 13 0 66 0;
#X connect 14 0 67 0;
#X connect 15 0 68 0;
#X connect 16 0 32 0;
#X connect 17 0 33 0;
#X connect 18 0 34 0;
#X connect 19 0 15 0;
#X connect 19 0 24 0;
#X connect 19 0 25 0;
#X connect 19 0 26 0;
#X connect 19 0 46 0;
#X connect 19 0 47 0;
#X connect 20 0 21 0;
#X connect 22 0 23 0;
#X connect 23 0 19 0;
#X connect 24 0 14 0;
#X connect 25 0 13 0;
#X connect 26 0 17 0;
#X connect 29 0 28 0;
#X connect 31 0 37 3;
#X connect 32 0 107 0;
#X connect 33 0 108 0;
#X connect 34 0 109 0;
#X connect 35 0 121 0;
#X connect 37 0 27 0;
#X connect 37 0 29 0;
#X connect 46 0 18 0;
#X connect 47 0 16 0;
#X connect 51 0 55 1;
#X connect 51 0 56 1;
#X connect 51 0 57 1;
#X connect 52 0 55 2;
#X connect 52 0 56 2;
#X connect 52 0 57 2;
#X connect 55 0 16 0;
#X connect 55 1 13 0;
#X connect 56 0 17 0;
#X connect 56 1 14 0;
#X connect 57 0 18 0;
#X connect 57 1 15 0;
#X connect 62 0 55 0;
#X connect 63 0 56 0;
#X connect 64 0 57 0;
#X connect 66 0 73 0;
#X connect 67 0 88 0;
#X connect 68 0 89 0;
#X connect 69 0 71 0;
#X connect 74 0 76 0;
#X connect 75 0 119 0;
#X connect 75 0 120 0;
#X connect 76 0 69 0;
#X connect 78 0 79 0;
#X connect 81 0 78 0;
#X connect 82 0 83 0;
#X connect 85 0 82 0;
#X connect 86 0 81 0;
#X connect 87 0 85 0;
#X connect 92 0 94 0;
#X connect 96 0 92 0;
#X connect 97 0 98 0;
#X connect 100 0 97 0;
#X connect 101 0 102 0;
#X connect 104 0 101 0;
#X connect 110 0 96 0;
#X connect 111 0 100 0;
#X connect 112 0 104 0;
#X connect 115 0 5 0;
#X connect 116 0 6 0;
#X connect 117 0 7 0;
#X connect 119 0 51 0;
#X connect 120 0 52 0;
#X connect 121 0 31 0;
#X connect 123 0 126 0;
#X connect 124 0 123 1;
#X connect 125 0 123 0;
#X connect 126 0 128 0;
#X connect 128 0 129 0;
#X connect 128 1 129 1;
#X connect 128 2 129 2;
#X connect 129 0 62 0;
#X connect 129 1 63 0;
#X connect 129 2 64 0;
#X connect 130 0 125 0;
#X connect 131 0 130 0;
#X connect 131 1 133 0;
#X connect 133 0 125 0;
#X connect 136 0 131 0;
#X connect 136 1 137 0;
#X connect 136 1 139 0;
#X connect 136 1 138 0;
#X connect 137 0 125 0;
#X connect 138 0 125 0;
#X connect 139 0 125 0;
#X connect 142 0 136 0;
