#N canvas 0 0 926 275 10;
#X msg 74 136 1;
#X msg 111 136 0;
#X obj 58 164 *~;
#X obj 614 14 inlet who-should-sound;
#X obj 53 13 inlet~ signal;
#X obj 57 191 outlet~;
#X msg 159 136 1;
#X msg 196 136 0;
#X obj 143 164 *~;
#X obj 159 112 sel 1;
#X obj 142 191 outlet~;
#X msg 246 136 1;
#X msg 283 136 0;
#X obj 230 164 *~;
#X obj 229 191 outlet~;
#X msg 336 139 1;
#X msg 373 139 0;
#X obj 320 167 *~;
#X obj 319 194 outlet~;
#X msg 427 140 1;
#X msg 464 140 0;
#X obj 411 168 *~;
#X obj 410 195 outlet~;
#X msg 520 138 1;
#X msg 557 138 0;
#X obj 504 166 *~;
#X obj 503 193 outlet~;
#X msg 608 140 1;
#X msg 645 140 0;
#X obj 592 168 *~;
#X obj 591 195 outlet~;
#X msg 708 141 1;
#X msg 745 141 0;
#X obj 692 169 *~;
#X obj 691 196 outlet~;
#X obj 74 113 sel 0;
#X obj 246 112 sel 2;
#X obj 338 114 sel 3;
#X obj 427 116 sel 4;
#X obj 520 114 sel 5;
#X obj 608 116 sel 6;
#X obj 708 117 sel 7;
#X connect 0 0 2 1;
#X connect 1 0 2 1;
#X connect 2 0 5 0;
#X connect 3 0 35 0;
#X connect 3 0 9 0;
#X connect 3 0 36 0;
#X connect 3 0 37 0;
#X connect 3 0 38 0;
#X connect 3 0 39 0;
#X connect 3 0 40 0;
#X connect 3 0 41 0;
#X connect 4 0 2 0;
#X connect 4 0 8 0;
#X connect 4 0 13 0;
#X connect 4 0 17 0;
#X connect 4 0 21 0;
#X connect 4 0 25 0;
#X connect 4 0 29 0;
#X connect 4 0 33 0;
#X connect 6 0 8 1;
#X connect 7 0 8 1;
#X connect 8 0 10 0;
#X connect 9 0 6 0;
#X connect 9 1 7 0;
#X connect 11 0 13 1;
#X connect 12 0 13 1;
#X connect 13 0 14 0;
#X connect 15 0 17 1;
#X connect 16 0 17 1;
#X connect 17 0 18 0;
#X connect 19 0 21 1;
#X connect 20 0 21 1;
#X connect 21 0 22 0;
#X connect 23 0 25 1;
#X connect 24 0 25 1;
#X connect 25 0 26 0;
#X connect 27 0 29 1;
#X connect 28 0 29 1;
#X connect 29 0 30 0;
#X connect 31 0 33 1;
#X connect 32 0 33 1;
#X connect 33 0 34 0;
#X connect 35 0 0 0;
#X connect 35 1 1 0;
#X connect 36 0 11 0;
#X connect 36 1 12 0;
#X connect 37 0 15 0;
#X connect 37 1 16 0;
#X connect 38 0 19 0;
#X connect 38 1 20 0;
#X connect 39 0 23 0;
#X connect 39 1 24 0;
#X connect 40 0 27 0;
#X connect 40 1 28 0;
#X connect 41 0 31 0;
#X connect 41 1 32 0;
