#N canvas 0 0 926 275 10;
#X msg 74 136 1;
#X msg 111 136 0;
#X obj 58 164 *~;
#X obj 750 60 inlet who-should-sound;
#X obj 315 227 outlet~;
#X msg 159 136 1;
#X msg 196 136 0;
#X obj 143 164 *~;
#X obj 159 112 sel 1;
#X msg 246 136 1;
#X msg 283 136 0;
#X obj 230 164 *~;
#X msg 336 139 1;
#X msg 373 139 0;
#X obj 320 167 *~;
#X msg 427 140 1;
#X msg 464 140 0;
#X obj 411 168 *~;
#X msg 520 138 1;
#X msg 557 138 0;
#X obj 504 166 *~;
#X msg 608 140 1;
#X msg 645 140 0;
#X obj 592 168 *~;
#X msg 708 141 1;
#X msg 745 141 0;
#X obj 692 169 *~;
#X obj 74 113 sel 0;
#X obj 246 112 sel 2;
#X obj 338 114 sel 3;
#X obj 427 116 sel 4;
#X obj 520 114 sel 5;
#X obj 608 116 sel 6;
#X obj 708 117 sel 7;
#X obj 57 2 inlet~ signal1;
#X obj 143 24 inlet~ signal2;
#X obj 231 2 inlet~ signal3;
#X obj 319 24 inlet~ signal4;
#X obj 410 2 inlet~ signal5;
#X obj 503 24 inlet~ signal6;
#X obj 591 2 inlet~ signal7;
#X obj 693 25 inlet~ signal8;
#X connect 0 0 2 1;
#X connect 1 0 2 1;
#X connect 2 0 4 0;
#X connect 3 0 27 0;
#X connect 3 0 8 0;
#X connect 3 0 28 0;
#X connect 3 0 29 0;
#X connect 3 0 30 0;
#X connect 3 0 31 0;
#X connect 3 0 32 0;
#X connect 3 0 33 0;
#X connect 5 0 7 1;
#X connect 6 0 7 1;
#X connect 7 0 4 0;
#X connect 8 0 5 0;
#X connect 8 1 6 0;
#X connect 9 0 11 1;
#X connect 10 0 11 1;
#X connect 11 0 4 0;
#X connect 12 0 14 1;
#X connect 13 0 14 1;
#X connect 14 0 4 0;
#X connect 15 0 17 1;
#X connect 16 0 17 1;
#X connect 17 0 4 0;
#X connect 18 0 20 1;
#X connect 19 0 20 1;
#X connect 20 0 4 0;
#X connect 21 0 23 1;
#X connect 22 0 23 1;
#X connect 23 0 4 0;
#X connect 24 0 26 1;
#X connect 25 0 26 1;
#X connect 26 0 4 0;
#X connect 27 0 0 0;
#X connect 27 1 1 0;
#X connect 28 0 9 0;
#X connect 28 1 10 0;
#X connect 29 0 12 0;
#X connect 29 1 13 0;
#X connect 30 0 15 0;
#X connect 30 1 16 0;
#X connect 31 0 18 0;
#X connect 31 1 19 0;
#X connect 32 0 21 0;
#X connect 32 1 22 0;
#X connect 33 0 24 0;
#X connect 33 1 25 0;
#X connect 34 0 2 0;
#X connect 35 0 7 0;
#X connect 36 0 11 0;
#X connect 37 0 14 0;
#X connect 38 0 17 0;
#X connect 39 0 20 0;
#X connect 40 0 23 0;
#X connect 41 0 26 0;
