#N canvas 0 25 1255 916 10;
#X obj 110 137 cnv 15 60 22 empty empty empty 20 12 0 14 -253938 -66577
0;
#X msg 118 138 open 4;
#N canvas 157 469 525 433 serin 0;
#X obj 180 61 cnv 15 15 15 empty \$0-number-canvas 4 4 8 0 14 -233017
-1 0;
#X obj 200 225 s \$0-number-canvas;
#X obj 60 61 hradio 15 1 1 8 empty empty empty 0 -6 0 8 -225271 -1
-1 4;
#X obj 60 13 inlet;
#X msg 200 202 label \$1;
#X obj 200 180 makefilename %d;
#X obj 59 108 int;
#X msg 59 206 open \$1;
#X obj 59 377 outlet;
#X msg 201 306 set \$1 \$2;
#X obj 59 266 trigger bang anything;
#X obj 201 286 list;
#X obj 383 383 outlet;
#X obj 384 22 netreceive 34567;
#X obj 477 43 tgl 15 0 empty empty empty 0 -6 0 10 -262144 -1 -1 0
1;
#X obj 384 41 bng 15 250 50 0 empty empty empty 0 -6 0 10 -262144 -1
-1;
#X obj 187 24 delay 15000;
#X text 345 379 close;
#X text 209 4 for open/close automation in Makefile;
#N canvas 698 22 318 215 reset 0;
#X obj 65 24 inlet;
#X obj 66 58 bang;
#X obj 66 150 send ARDUINO_TEST_RESET;
#X msg 66 129 0;
#X msg 111 99 1;
#X obj 111 120 send ARDUINO_PINMODE_RESET;
#X connect 0 0 1 0;
#X connect 1 0 3 0;
#X connect 1 0 4 0;
#X connect 3 0 2 0;
#X connect 4 0 5 0;
#X restore 172 111 pd reset guis;
#X connect 2 0 6 0;
#X connect 2 0 19 0;
#X connect 3 0 2 0;
#X connect 4 0 1 0;
#X connect 5 0 4 0;
#X connect 6 0 5 0;
#X connect 6 0 7 0;
#X connect 7 0 10 0;
#X connect 9 0 8 0;
#X connect 10 0 8 0;
#X connect 10 1 11 0;
#X connect 11 0 9 0;
#X connect 13 0 15 0;
#X connect 13 1 14 0;
#X connect 15 0 16 0;
#X connect 15 0 12 0;
#X connect 16 0 2 0;
#X coords 0 -1 1 1 136 17 1 60 60;
#X restore 111 114 pd serin;
#X text 109 95 serial port #;
#X msg 180 140 close;
#X obj 487 122 tgl 15 1 empty empty empty 0 -6 0 8 -225271 -1 -1 1
1;
#X floatatom 438 471 5 0 0 3 a0 - -;
#X floatatom 476 471 5 0 0 3 a1 - -;
#X floatatom 514 471 5 0 0 3 a2 - -;
#X floatatom 553 471 5 0 0 3 a3 - -;
#X floatatom 591 471 5 0 0 3 a4 - -;
#X floatatom 629 472 5 0 0 3 a5 - -;
#X text 204 782 <- argument sets port #;
#X obj 440 122 spigot;
#X floatatom 667 473 5 0 0 3 a6 - -;
#X floatatom 706 474 5 0 0 3 a7 - -;
#X obj 440 144 route analog;
#X obj 438 411 route 0 1 2 3 4 5 6 7;
#N canvas 978 22 499 396 display 0;
#X obj 6 7 inlet;
#X obj 6 28 mapping/resample 100;
#X obj 6 50 outlet;
#X obj 54 50 inlet;
#X obj 54 71 mapping/resample 100;
#X obj 54 93 outlet;
#X obj 103 93 inlet;
#X obj 103 114 mapping/resample 100;
#X obj 103 136 outlet;
#X obj 151 136 inlet;
#X obj 151 157 mapping/resample 100;
#X obj 151 179 outlet;
#X obj 200 179 inlet;
#X obj 200 200 mapping/resample 100;
#X obj 200 222 outlet;
#X obj 247 222 inlet;
#X obj 247 243 mapping/resample 100;
#X obj 247 265 outlet;
#X obj 295 265 inlet;
#X obj 295 286 mapping/resample 100;
#X obj 295 308 outlet;
#X obj 345 308 inlet;
#X obj 345 329 mapping/resample 100;
#X obj 345 351 outlet;
#X obj 60 290 receive ARDUINO_TEST_RESET;
#X connect 0 0 1 0;
#X connect 1 0 2 0;
#X connect 3 0 4 0;
#X connect 4 0 5 0;
#X connect 6 0 7 0;
#X connect 7 0 8 0;
#X connect 9 0 10 0;
#X connect 10 0 11 0;
#X connect 12 0 13 0;
#X connect 13 0 14 0;
#X connect 15 0 16 0;
#X connect 16 0 17 0;
#X connect 18 0 19 0;
#X connect 19 0 20 0;
#X connect 21 0 22 0;
#X connect 22 0 23 0;
#X connect 24 0 22 0;
#X connect 24 0 19 0;
#X connect 24 0 16 0;
#X connect 24 0 13 0;
#X connect 24 0 10 0;
#X connect 24 0 7 0;
#X connect 24 0 4 0;
#X connect 24 0 1 0;
#X restore 437 439 pd display values without pegging the CPU;
#X obj 436 315 route 0 1 2 3 4 5 6 7 8 9 10 11 12 13;
#X obj 467 337 tgl 15 0 empty ARDUINO_TEST_RESET 2 4 23 1 12 -232448
-1 -1 1 1;
#X obj 484 337 tgl 15 0 empty ARDUINO_TEST_RESET 3 4 23 1 12 -232448
-1 -1 1 1;
#X obj 501 337 tgl 15 0 empty ARDUINO_TEST_RESET 4 4 23 1 12 -232448
-1 -1 1 1;
#X obj 518 337 tgl 15 0 empty ARDUINO_TEST_RESET 5 4 23 1 12 -232448
-1 -1 1 1;
#X obj 535 337 tgl 15 0 empty ARDUINO_TEST_RESET 6 4 23 1 12 -232448
-1 -1 1 1;
#X obj 552 337 tgl 15 0 empty ARDUINO_TEST_RESET 7 4 23 1 12 -232448
-1 -1 1 1;
#X obj 569 337 tgl 15 0 empty ARDUINO_TEST_RESET 8 4 23 1 12 -232448
-1 -1 0 1;
#X obj 586 337 tgl 15 0 empty ARDUINO_TEST_RESET 9 4 23 1 12 -232448
-1 -1 0 1;
#X obj 603 337 tgl 15 0 empty ARDUINO_TEST_RESET 10 0 23 1 12 -232448
-1 -1 0 1;
#X obj 620 337 tgl 15 0 empty ARDUINO_TEST_RESET 11 0 23 1 12 -232448
-1 -1 0 1;
#X obj 637 337 tgl 15 0 empty ARDUINO_TEST_RESET 12 0 23 1 12 -232448
-1 -1 0 1;
#X obj 654 337 tgl 15 0 empty ARDUINO_TEST_RESET 13 0 23 1 12 -232448
-1 -1 0 1;
#X obj 453 275 unpack 0 0;
#X floatatom 453 295 5 0 0 0 - - -;
#X floatatom 510 295 5 0 0 0 - - -;
#X obj 433 337 tgl 15 0 empty empty 0 4 23 1 12 -232448 -1 -1 0 1;
#X obj 450 337 tgl 15 0 empty empty 1 4 23 1 12 -232448 -1 -1 0 1;
#X obj 433 337 cnv 15 15 15 empty empty Rx 1 10 0 11 -128992 -86277
0;
#X obj 450 337 cnv 15 15 15 empty empty Tx 1 10 0 11 -128992 -13381
0;
#X obj 138 783 arduino 1;
#N canvas 0 22 450 300 STRING 0;
#X obj 48 13 inlet;
#X obj 51 93 moocow/string2any 32 -1;
#X obj 51 154 print STRING;
#X connect 0 0 1 0;
#X connect 1 0 2 0;
#X restore 521 275 pd STRING;
#X obj 436 251 route digital version string sysex;
#N canvas 0 22 450 300 sysex 0;
#X obj 139 19 inlet;
#X obj 127 109 moocow/string2any 32 -1;
#X obj 127 170 print STRING;
#X obj 97 55 list split 1;
#X obj 40 109 print COMMAND;
#X obj 210 54 print sysex;
#X connect 0 0 3 0;
#X connect 0 0 5 0;
#X connect 1 0 2 0;
#X connect 3 0 4 0;
#X connect 3 1 1 0;
#X restore 586 275 pd sysex;
#N canvas 0 22 450 300 (subpatch) 0;
#X coords 0 1 100 -1 200 70 1;
#X restore 97 94 graph;
#X text 95 78 select serial port;
#X text 424 91 INPUT READINGS;
#N canvas 0 22 450 300 (subpatch) 0;
#X coords 0 1 100 -1 275 125 1;
#X restore 424 248 graph;
#N canvas 0 22 450 300 (subpatch) 0;
#X coords 0 1 100 -1 300 125 1;
#X restore 424 405 graph;
#X text 424 231 digital input readings;
#X text 423 386 analog input readings;
#X text 504 122 turn reporting of input readings on/off;
#X obj 199 550 loadbang;
#N canvas 653 539 450 300 start_instrument 0;
#X obj 119 29 inlet;
#X msg 13 83 pinMode 2 0;
#X msg 94 82 pinMode 3 0;
#X msg 182 82 pinMode 4 0;
#X msg 12 109 pinMode 5 0;
#X msg 95 107 pinMode 6 0;
#X msg 181 110 pinMode 7 0;
#X obj 110 175 outlet;
#X msg 352 83 digitalIns 0 1;
#X msg 262 84 analogIns 0 1;
#X connect 0 0 1 0;
#X connect 0 0 2 0;
#X connect 0 0 3 0;
#X connect 0 0 4 0;
#X connect 0 0 5 0;
#X connect 0 0 6 0;
#X connect 0 0 8 0;
#X connect 0 0 9 0;
#X connect 1 0 7 0;
#X connect 2 0 7 0;
#X connect 3 0 7 0;
#X connect 4 0 7 0;
#X connect 5 0 7 0;
#X connect 6 0 7 0;
#X connect 8 0 7 0;
#X connect 9 0 7 0;
#X restore 199 594 pd start_instrument;
#X obj 461 692 sel 0;
#X obj 461 726 bng 15 250 50 0 empty empty empty 17 7 0 10 -262144
-1 -1;
#X obj 503 691 sel 0;
#X obj 503 726 bng 15 250 50 0 empty empty empty 17 7 0 10 -262144
-1 -1;
#X obj 542 690 sel 0;
#X obj 542 726 bng 15 250 50 0 empty empty empty 17 7 0 10 -262144
-1 -1;
#X obj 583 689 sel 0;
#X obj 583 725 bng 15 250 50 0 empty empty empty 17 7 0 10 -262144
-1 -1;
#X obj 622 689 sel 0;
#X obj 622 724 bng 15 250 50 0 empty empty empty 17 7 0 10 -262144
-1 -1;
#X obj 662 689 sel 0;
#X obj 662 725 bng 15 250 50 0 empty empty empty 17 7 0 10 -262144
-1 -1;
#X floatatom 390 740 5 0 0 0 - - -;
#X msg 388 710 440;
#X obj 460 887 * 1;
#X obj 504 915 * 1.12246;
#X obj 540 881 * 1.25992;
#X obj 583 913 * 1.49831;
#X obj 623 879 * 1.68179;
#X obj 664 912 * 2;
#X floatatom 460 961 5 0 0 0 - - -;
#X floatatom 503 963 5 0 0 0 - - -;
#X floatatom 541 962 5 0 0 0 - - -;
#X floatatom 584 964 5 0 0 0 - - -;
#X floatatom 626 963 5 0 0 0 - - -;
#X floatatom 666 964 5 0 0 0 - - -;
#X obj 790 1043 dac~;
#X obj 744 789 adsr 1 50 200 30 500;
#X obj 774 935 *~;
#X text 846 1071 TODO: POLYPHONY;
#X obj 746 696 sel 1;
#X msg 748 729 0;
#X msg 707 762 1;
#X obj 880 788 adc~;
#X obj 566 1046 sig~;
#X obj 880 832 *~ 200;
#X floatatom 932 785 5 0 0 0 - - -;
#X obj 558 1152 phasor~;
#X obj 737 615 * 5000;
#X obj 792 979 bp~ 100 10;
#X obj 752 652 + 440;
#X obj 676 1035 expr~ $v1 > 0.25;
#X msg 932 748 45;
#X obj 197 499 bng 15 250 50 0 empty empty empty 17 7 0 10 -262144
-1 -1;
#X text 175 478 PRESS TO START;
#X connect 1 0 39 0;
#X connect 2 0 1 0;
#X connect 2 1 4 0;
#X connect 4 0 39 0;
#X connect 5 0 13 1;
#X connect 13 0 16 0;
#X connect 16 0 17 0;
#X connect 16 1 41 0;
#X connect 17 0 18 0;
#X connect 17 0 91 0;
#X connect 17 1 18 1;
#X connect 17 2 18 2;
#X connect 17 3 18 3;
#X connect 17 4 18 4;
#X connect 17 5 18 5;
#X connect 17 6 18 6;
#X connect 17 7 18 7;
#X connect 18 0 6 0;
#X connect 18 1 7 0;
#X connect 18 2 8 0;
#X connect 18 3 9 0;
#X connect 18 4 10 0;
#X connect 18 5 11 0;
#X connect 18 6 14 0;
#X connect 18 7 15 0;
#X connect 19 2 20 0;
#X connect 19 3 21 0;
#X connect 19 4 22 0;
#X connect 19 5 23 0;
#X connect 19 6 24 0;
#X connect 19 7 25 0;
#X connect 19 8 26 0;
#X connect 19 9 27 0;
#X connect 19 10 28 0;
#X connect 19 11 29 0;
#X connect 19 12 30 0;
#X connect 19 13 31 0;
#X connect 20 0 53 0;
#X connect 20 0 83 0;
#X connect 21 0 55 0;
#X connect 21 0 83 0;
#X connect 22 0 57 0;
#X connect 22 0 83 0;
#X connect 23 0 59 0;
#X connect 23 0 83 0;
#X connect 24 0 61 0;
#X connect 24 0 83 0;
#X connect 25 0 63 0;
#X connect 25 0 83 0;
#X connect 32 0 33 0;
#X connect 32 1 34 0;
#X connect 39 0 13 0;
#X connect 41 0 19 0;
#X connect 41 1 32 0;
#X connect 41 2 40 0;
#X connect 41 3 42 0;
#X connect 51 0 52 0;
#X connect 51 0 66 0;
#X connect 51 0 95 0;
#X connect 52 0 39 0;
#X connect 53 0 54 0;
#X connect 54 0 73 0;
#X connect 54 0 85 0;
#X connect 55 0 56 0;
#X connect 56 0 74 0;
#X connect 56 0 85 0;
#X connect 57 0 58 0;
#X connect 58 0 75 0;
#X connect 58 0 85 0;
#X connect 59 0 60 0;
#X connect 60 0 76 0;
#X connect 60 0 85 0;
#X connect 61 0 62 0;
#X connect 62 0 77 0;
#X connect 62 0 85 0;
#X connect 63 0 64 0;
#X connect 64 0 78 0;
#X connect 64 0 85 0;
#X connect 65 0 67 0;
#X connect 65 0 68 0;
#X connect 65 0 69 0;
#X connect 65 0 70 0;
#X connect 65 0 71 0;
#X connect 65 0 72 0;
#X connect 66 0 65 0;
#X connect 67 0 73 0;
#X connect 68 0 74 0;
#X connect 69 0 75 0;
#X connect 70 0 76 0;
#X connect 71 0 77 0;
#X connect 72 0 78 0;
#X connect 73 0 87 0;
#X connect 74 0 87 0;
#X connect 75 0 87 0;
#X connect 76 0 87 0;
#X connect 77 0 87 0;
#X connect 78 0 87 0;
#X connect 80 0 81 1;
#X connect 81 0 92 0;
#X connect 83 0 84 0;
#X connect 84 0 80 0;
#X connect 85 0 80 0;
#X connect 86 0 88 0;
#X connect 87 0 90 0;
#X connect 88 0 79 0;
#X connect 88 0 79 1;
#X connect 89 0 88 1;
#X connect 90 0 94 0;
#X connect 91 0 93 0;
#X connect 92 0 79 0;
#X connect 92 0 79 1;
#X connect 93 0 92 1;
#X connect 94 0 81 0;
#X connect 95 0 89 0;
#X connect 96 0 52 0;
