#N canvas 0 25 1272 916 10;
#X msg 46 137 \; pd dsp 1;
#X msg 47 172 \; pd dsp 0;
#X msg 750 498 symbol oud-samples/trill3.wav;
#X msg 750 545 symbol oud-samples/short-glissdown.1.wav;
#X msg 750 634 symbol oud-samples/lowD1.wav;
#X msg 750 590 symbol oud-samples/harm-allstrings.1.wav;
#X obj 750 611 store-sample harm;
#X obj 376 662 hsl 128 15 0 1 0 0 empty empty empty -2 -6 0 8 -262144
-1 -1 12700 1;
#X floatatom 373 684 5 0 0 0 - - -;
#X obj 319 751 dac~;
#X obj 325 725 *~;
#X text 373 642 Volume;
#X msg 303 240 symbol lowD;
#X msg 243 179 symbol trill;
#X msg 262 202 symbol gliss;
#X obj 750 519 store-sample trill;
#X obj 750 566 store-sample gliss;
#X obj 750 655 store-sample lowD;
#X msg 282 219 symbol harm;
#X text 802 462 Loading sound files into memory;
#X obj 167 456 play-sample;
#X obj 173 402 t b s;
#X floatatom 543 413 5 0 0 0 - - -;
#X text 26 230 Click one to play the sample;
#X obj 247 112 keyname-down;
#X text 18 116 1) Turn on audio;
#X obj 728 457 loadbang;
#X text 15 215 The names of the sample tables ->;
#X text 322 110 3) Type;
#X text 374 624 2) Adjust the volume;
#X obj 624 556 MouseState;
#X msg 633 519 poll;
#X floatatom 599 601 5 0 0 0 - - -;
#X floatatom 599 655 5 0 0 0 - - -;
#X obj 322 508 hip~;
#X obj 655 599 * 5;
#X obj 331 630 tgl 15 0 empty empty empty 17 7 0 10 -262144 -1 -1 0
1;
#X obj 255 685 +~;
#X obj 185 583 *~ 0.9;
#X obj 307 602 delread~ echo 10;
#X obj 291 651 *~;
#X floatatom 675 664 5 0 0 0 - - -;
#X obj 357 570 abs;
#X obj 325 544 delwrite~ echo 1000;
#X obj 12 352 bng 15 250 50 0 empty empty empty 17 7 0 10 -262144 -1
-1;
#X obj 43 352 bng 15 250 50 0 empty empty empty 17 7 0 10 -262144 -1
-1;
#X obj 74 357 bng 15 250 50 0 empty empty empty 17 7 0 10 -262144 -1
-1;
#X obj 111 358 bng 15 250 50 0 empty empty empty 17 7 0 10 -262144
-1 -1;
#X obj 597 628 / 400;
#X obj 116 17 bng 15 250 50 0 empty empty empty 17 7 0 10 -262144 -1
-1;
#X obj 156 19 bng 15 250 50 0 empty empty empty 17 7 0 10 -262144 -1
-1;
#X obj 210 13 bng 15 250 50 0 empty empty empty 17 7 0 10 -262144 -1
-1;
#X obj 248 13 bng 15 250 50 0 empty empty empty 17 7 0 10 -262144 -1
-1;
#X obj 247 457 play-sample;
#X obj 323 458 play-sample;
#X obj 403 459 play-sample;
#X obj 250 404 t b s;
#X obj 329 405 t b s;
#X obj 407 407 t b s;
#X obj 297 14 bng 15 250 50 0 empty empty empty 17 7 0 10 -262144 -1
-1;
#X obj 333 12 bng 15 250 50 0 empty empty empty 17 7 0 10 -262144 -1
-1;
#X obj 382 14 bng 15 250 50 0 empty empty empty 17 7 0 10 -262144 -1
-1;
#X obj 423 15 bng 15 250 50 0 empty empty empty 17 7 0 10 -262144 -1
-1;
#X obj 247 133 sel a s d f;
#X obj 132 71 taptempo;
#X obj 217 71 taptempo;
#X obj 313 68 taptempo;
#X obj 398 68 taptempo;
#X floatatom 718 218 10 0 0 0 - - -;
#X obj 718 267 sig~;
#X obj 747 293 +~;
#X obj 748 320 osc~;
#X floatatom 788 125 5 0 0 0 - - -;
#X obj 788 162 sig~;
#X obj 789 192 +~;
#X obj 788 229 osc~;
#X obj 790 261 *~;
#X obj 952 107 *~;
#X obj 952 79 osc~;
#X floatatom 854 227 5 0 0 0 - - -;
#X floatatom 1000 79 5 0 0 0 - - -;
#X floatatom 952 55 5 0 0 0 - - -;
#X obj 276 712 +~;
#X obj 519 107 keyname-down;
#X obj 519 128 sel q w e r t y u i;
#X msg 520 160 16.35;
#X msg 531 183 18.35;
#X msg 547 210 20.6;
#X msg 559 235 21.83;
#X msg 573 160 24.5;
#X msg 582 183 27.5;
#X msg 592 210 30.87;
#X msg 606 235 32 \, 7;
#X text 718 202 carrier;
#X text 790 91 modulation frequency;
#X text 892 225 modulation frequency index;
#X text 908 31 modulation frequency modulation frequency;
#X text 934 131 modulation frequency modulation frequency index;
#X obj 717 244 * 2;
#X text 759 -19 FFMM BASS NOISE;
#X text 243 -43 TAP-TEMPO SAMPLE LOOPS;
#X text 114 -3 tap;
#X text 152 -3 rst;
#X text 207 -6 tap;
#X text 249 -6 rst;
#X text 293 -9 tap;
#X text 330 -10 rst;
#X text 382 -6 tap;
#X text 419 -7 rst;
#X text 600 741 MOUSE-BASED EFFECTS;
#X connect 2 0 15 0;
#X connect 3 0 16 0;
#X connect 4 0 17 0;
#X connect 5 0 6 0;
#X connect 7 0 8 0;
#X connect 8 0 10 1;
#X connect 10 0 9 0;
#X connect 10 0 9 1;
#X connect 12 0 47 0;
#X connect 12 0 58 0;
#X connect 13 0 21 0;
#X connect 13 0 44 0;
#X connect 14 0 45 0;
#X connect 14 0 56 0;
#X connect 18 0 46 0;
#X connect 18 0 57 0;
#X connect 20 0 34 0;
#X connect 21 0 20 0;
#X connect 21 1 20 1;
#X connect 22 0 20 2;
#X connect 22 0 53 2;
#X connect 22 0 54 2;
#X connect 22 0 55 2;
#X connect 24 0 63 0;
#X connect 26 0 2 0;
#X connect 26 0 3 0;
#X connect 26 0 5 0;
#X connect 26 0 4 0;
#X connect 26 0 31 0;
#X connect 30 0 36 0;
#X connect 30 1 32 0;
#X connect 30 2 35 0;
#X connect 30 3 41 0;
#X connect 30 3 42 0;
#X connect 31 0 30 0;
#X connect 32 0 48 0;
#X connect 33 0 22 0;
#X connect 34 0 37 0;
#X connect 34 0 43 0;
#X connect 35 0 34 1;
#X connect 36 0 40 1;
#X connect 37 0 82 0;
#X connect 38 0 43 0;
#X connect 39 0 38 0;
#X connect 39 0 40 0;
#X connect 40 0 37 1;
#X connect 42 0 39 0;
#X connect 48 0 33 0;
#X connect 49 0 64 0;
#X connect 50 0 64 1;
#X connect 51 0 65 0;
#X connect 52 0 65 1;
#X connect 53 0 34 0;
#X connect 54 0 34 0;
#X connect 55 0 34 0;
#X connect 56 0 53 0;
#X connect 56 1 53 1;
#X connect 57 0 54 0;
#X connect 57 1 54 1;
#X connect 58 0 55 0;
#X connect 58 1 55 1;
#X connect 59 0 66 0;
#X connect 60 0 66 1;
#X connect 61 0 67 0;
#X connect 62 0 67 1;
#X connect 63 0 13 0;
#X connect 63 1 14 0;
#X connect 63 2 18 0;
#X connect 63 3 12 0;
#X connect 64 0 13 0;
#X connect 65 0 14 0;
#X connect 66 0 18 0;
#X connect 67 0 12 0;
#X connect 68 0 98 0;
#X connect 69 0 70 0;
#X connect 70 0 71 0;
#X connect 71 0 82 1;
#X connect 72 0 73 0;
#X connect 73 0 74 0;
#X connect 74 0 75 0;
#X connect 75 0 76 0;
#X connect 76 0 70 1;
#X connect 77 0 74 1;
#X connect 78 0 77 0;
#X connect 79 0 76 1;
#X connect 80 0 77 1;
#X connect 81 0 78 0;
#X connect 82 0 10 0;
#X connect 83 0 84 0;
#X connect 84 0 85 0;
#X connect 84 1 86 0;
#X connect 84 2 87 0;
#X connect 84 3 88 0;
#X connect 84 4 89 0;
#X connect 84 5 90 0;
#X connect 84 6 91 0;
#X connect 84 7 92 0;
#X connect 85 0 68 0;
#X connect 86 0 68 0;
#X connect 87 0 68 0;
#X connect 88 0 68 0;
#X connect 89 0 68 0;
#X connect 90 0 68 0;
#X connect 91 0 68 0;
#X connect 92 0 68 0;
#X connect 98 0 69 0;
