#N canvas 0 25 1280 919 10;
#X msg 229 133 \; pd dsp 1;
#X msg 230 168 \; pd dsp 0;
#X msg 831 456 symbol oud-samples/trill3.wav;
#X msg 831 503 symbol oud-samples/short-glissdown.1.wav;
#X msg 831 592 symbol oud-samples/lowD1.wav;
#X msg 831 548 symbol oud-samples/harm-allstrings.1.wav;
#X obj 831 569 store-sample harm;
#X obj 457 620 hsl 128 15 0 1 0 0 empty empty empty -2 -6 0 8 -262144
-1 -1 12700 1;
#X floatatom 454 642 5 0 0 0 - - -;
#X obj 400 709 dac~;
#X obj 406 683 *~;
#X text 454 600 Volume;
#X msg 486 236 symbol lowD;
#X msg 426 175 symbol trill;
#X msg 445 198 symbol gliss;
#X obj 831 477 store-sample trill;
#X obj 831 524 store-sample gliss;
#X obj 831 613 store-sample lowD;
#X msg 465 215 symbol harm;
#X text 883 420 Loading sound files into memory;
#X obj 402 415 play-sample;
#X obj 426 302 t b s;
#X floatatom 505 384 5 0 0 0 - - -;
#X msg 536 333 1;
#X msg 502 333 0.5;
#X msg 683 334 1.5;
#X msg 636 334 1.333;
#X msg 569 334 1.2;
#X msg 599 334 1.25;
#X text 209 226 Click one to play the sample;
#X obj 427 129 sel t g h d;
#X obj 427 108 keyname-down;
#X obj 575 218 route symbol;
#X obj 575 261 sel z x c v b n;
#X text 201 112 1) Turn on audio;
#X obj 809 415 loadbang;
#X text 198 211 The names of the sample tables ->;
#X text 713 332 <--Some just intervals;
#X text 691 263 <--These keys change pitch;
#X text 525 108 3) Type;
#X text 455 582 2) Adjust the volume;
#X obj 705 514 MouseState;
#X msg 714 477 poll;
#X floatatom 680 559 5 0 0 0 - - -;
#X floatatom 680 613 5 0 0 0 - - -;
#X obj 678 586 / 800;
#X obj 403 466 hip~;
#X obj 736 557 * 5;
#X obj 412 588 tgl 15 0 empty empty empty 17 7 0 10 -262144 -1 -1 0
1;
#X obj 336 643 +~;
#X obj 266 541 *~ 0.9;
#X obj 388 560 delread~ echo 10;
#X obj 372 609 *~;
#X floatatom 756 622 5 0 0 0 - - -;
#X obj 438 528 abs;
#X obj 406 502 delwrite~ echo 1000;
#X connect 2 0 15 0;
#X connect 3 0 16 0;
#X connect 4 0 17 0;
#X connect 5 0 6 0;
#X connect 7 0 8 0;
#X connect 8 0 10 1;
#X connect 10 0 9 0;
#X connect 10 0 9 1;
#X connect 12 0 21 0;
#X connect 13 0 21 0;
#X connect 14 0 21 0;
#X connect 18 0 21 0;
#X connect 20 0 46 0;
#X connect 21 0 20 0;
#X connect 21 1 20 1;
#X connect 22 0 20 2;
#X connect 23 0 22 0;
#X connect 24 0 22 0;
#X connect 25 0 22 0;
#X connect 26 0 22 0;
#X connect 27 0 22 0;
#X connect 28 0 22 0;
#X connect 30 0 13 0;
#X connect 30 1 14 0;
#X connect 30 2 18 0;
#X connect 30 3 12 0;
#X connect 30 4 32 0;
#X connect 31 0 30 0;
#X connect 32 0 33 0;
#X connect 33 0 24 0;
#X connect 33 1 23 0;
#X connect 33 2 27 0;
#X connect 33 3 28 0;
#X connect 33 4 26 0;
#X connect 33 5 25 0;
#X connect 35 0 2 0;
#X connect 35 0 3 0;
#X connect 35 0 5 0;
#X connect 35 0 4 0;
#X connect 35 0 42 0;
#X connect 41 0 48 0;
#X connect 41 1 43 0;
#X connect 41 2 47 0;
#X connect 41 3 53 0;
#X connect 41 3 54 0;
#X connect 42 0 41 0;
#X connect 43 0 45 0;
#X connect 44 0 22 0;
#X connect 45 0 44 0;
#X connect 46 0 49 0;
#X connect 46 0 55 0;
#X connect 47 0 46 1;
#X connect 48 0 52 1;
#X connect 49 0 10 0;
#X connect 50 0 55 0;
#X connect 51 0 50 0;
#X connect 51 0 52 0;
#X connect 52 0 49 1;
#X connect 54 0 51 0;
