#N canvas 582 459 656 342 10;
#X floatatom 45 61 5 0 0 0 - - -;
#X floatatom 45 163 5 0 0 0 - - -;
#X obj 45 139 -;
#X msg 45 115 1;
#X obj 45 91 t b f;
#X connect 0 0 4 0;
#X connect 2 0 1 0;
#X connect 3 0 2 0;
#X connect 4 0 3 0;
#X connect 4 1 2 1;
