#N canvas 582 459 450 300 10;
#X floatatom 201 152 5 0 0 0 - - -;
#X floatatom 159 200 5 0 0 0 - - -;
#X obj 159 176 -;
#X msg 159 152 1;
#X obj 159 128 t b b;
#X obj 159 94 bng 15 250 50 0 empty empty empty 17 7 0 10 -262144 -1
-1;
#X text 240 152 1 Input your number here;
#X text 181 91 2 Press this button;
#X connect 0 0 2 1;
#X connect 2 0 1 0;
#X connect 3 0 2 0;
#X connect 4 0 3 0;
#X connect 4 1 0 0;
#X connect 5 0 4 0;
