#N canvas 385 104 843 788 10;
#X obj -442 369 timer;
#X floatatom -420 403 15 0 0 0 - - -;
#X floatatom -600 413 5 0 0 0 - - -;
#X msg -517 372 1;
#X obj -517 412 + 0;
#X obj -458 320 t b b b;
#X floatatom -437 493 20 0 0 0 - - -;
#X obj -439 447 + 0;
#X msg -541 242 set 0;
#X msg -489 242 0;
#X obj -530 99 gate 2;
#X obj -653 160 t b b b;
#X msg -634 60 1;
#X msg -581 61 2;
#X obj -559 164 t b b b b;
#X obj -489 560 / 1;
#X floatatom -495 597 30 0 0 0 - - -;
#X obj -520 661 metro;
#X obj -556 602 tgl 15 0 empty empty empty 17 7 0 10 -262144 -1 -1
1789.14 1789.14;
#X obj -484 10 inlet;
#X obj -550 10 inlet;
#X text -669 7 bangs to tap tempo;
#X text -441 9 bang to reset;
#X obj -521 708 outlet;
#X text -474 705 bangs at tapped tempo;
#X obj -470 48 bng 15 250 50 0 empty empty empty 17 7 0 10 -262144
-1 -1;
#X obj -410 135 bng 15 250 50 0 empty empty empty 17 7 0 10 -262144
-1 -1;
#X obj -606 31 loadbang;
#X obj -656 107 bng 15 250 50 0 empty empty empty 17 7 0 10 -262144
-1 -1;
#X connect 0 0 1 0;
#X connect 0 0 7 0;
#X connect 2 0 4 1;
#X connect 2 0 15 1;
#X connect 3 0 4 0;
#X connect 4 0 2 0;
#X connect 5 0 0 0;
#X connect 5 1 0 1;
#X connect 5 2 3 0;
#X connect 6 0 7 1;
#X connect 6 0 15 0;
#X connect 7 0 6 0;
#X connect 8 0 2 0;
#X connect 8 0 6 0;
#X connect 9 0 4 1;
#X connect 9 0 7 1;
#X connect 9 0 1 0;
#X connect 9 0 16 0;
#X connect 9 0 18 0;
#X connect 10 0 14 0;
#X connect 10 1 5 0;
#X connect 10 1 26 0;
#X connect 11 0 8 0;
#X connect 11 1 9 0;
#X connect 11 2 12 0;
#X connect 12 0 10 0;
#X connect 13 0 10 0;
#X connect 14 0 8 0;
#X connect 14 1 9 0;
#X connect 14 2 13 0;
#X connect 14 3 0 0;
#X connect 15 0 16 0;
#X connect 16 0 17 1;
#X connect 16 0 18 0;
#X connect 17 0 23 0;
#X connect 18 0 17 0;
#X connect 19 0 11 0;
#X connect 20 0 10 1;
#X connect 25 0 10 1;
#X connect 27 0 12 0;
#X connect 28 0 11 0;
