#N canvas 456 96 884 782 10;
#X obj 26 84 cnv 15 60 22 empty empty empty 20 12 0 14 -253938 -66577
0;
#X msg 34 85 open 0;
#N canvas 123 312 525 433 serin 0;
#X obj 180 61 cnv 15 15 15 empty \$0-number-canvas 0 4 8 0 14 -233017
-1 0;
#X obj 200 225 s \$0-number-canvas;
#X obj 60 61 hradio 15 1 1 8 empty empty empty 0 -6 0 8 -225271 -1
-1 0;
#X obj 60 13 inlet;
#X msg 200 202 label \$1;
#X obj 200 180 makefilename %d;
#X obj 59 108 int;
#X msg 59 206 open \$1;
#X obj 59 377 outlet;
#X msg 201 306 set \$1 \$2;
#X obj 59 266 trigger bang anything;
#X obj 201 286 list;
#X obj 383 383 outlet;
#X obj 384 22 netreceive 34567;
#X obj 477 43 tgl 15 0 empty empty empty 0 -6 0 10 -262144 -1 -1 0
1;
#X obj 384 41 bng 15 250 50 0 empty empty empty 0 -6 0 10 -262144 -1
-1;
#X obj 187 24 delay 15000;
#X text 345 379 close;
#X text 209 4 for open/close automation in Makefile;
#N canvas 698 22 318 215 reset 0;
#X obj 65 24 inlet;
#X obj 66 58 bang;
#X obj 66 150 send ARDUINO_TEST_RESET;
#X msg 66 129 0;
#X msg 111 99 1;
#X obj 111 120 send ARDUINO_PINMODE_RESET;
#X connect 0 0 1 0;
#X connect 1 0 3 0;
#X connect 1 0 4 0;
#X connect 3 0 2 0;
#X connect 4 0 5 0;
#X restore 172 111 pd reset guis;
#X connect 2 0 6 0;
#X connect 2 0 19 0;
#X connect 3 0 2 0;
#X connect 4 0 1 0;
#X connect 5 0 4 0;
#X connect 6 0 5 0;
#X connect 6 0 7 0;
#X connect 7 0 10 0;
#X connect 9 0 8 0;
#X connect 10 0 8 0;
#X connect 10 1 11 0;
#X connect 11 0 9 0;
#X connect 13 0 15 0;
#X connect 13 1 14 0;
#X connect 15 0 16 0;
#X connect 15 0 12 0;
#X connect 16 0 2 0;
#X coords 0 -1 1 1 136 17 1 60 60;
#X restore 34 62 pd serin;
#X text 32 42 serial port #;
#X msg 163 84 close;
#X text 32 27 select serial port;
#X obj 164 139 flatspace/comport \$1 9600;
#X obj 436 26 tgl 15 0 empty empty empty 17 7 0 10 -262144 -1 -1 0
1;
#X msg 374 101 2;
#X obj 428 96 bangbang;
#X obj 156 192 sel 10 13;
#X obj 424 61 metro 10;
#X obj 147 223 zl group 2;
#X obj 145 267 unpack 0 0;
#X obj 13 432 hsl 128 15 0 127 0 0 empty empty empty -2 -8 0 10 -262144
-1 -1 4500 1;
#X obj 138 370 tabwrite pitches;
#X obj 66 273 print;
#X obj 140 337 / 95;
#X obj -105 474 table pitches 256;
#X obj -102 627 table indicator 256;
#X floatatom 322 455 5 0 0 0 - - -;
#X obj 269 512 tabwrite indicator;
#X msg 249 449 1;
#X obj 261 373 t f b;
#X msg 283 452 0;
#X obj 243 408 t b f;
#X obj 310 407 t b b;
#X obj 202 293 average 20;
#X obj 439 339 modulo_counter 256;
#X obj 439 307 metro 10;
#X obj 452 473 osc~;
#X obj 446 536 dac~;
#X obj 439 368 tabread pitches;
#X obj 442 251 tgl 15 0 empty empty empty 17 7 0 10 -262144 -1 -1 0
1;
#X obj 390 418 print;
#X obj 446 409 * 300;
#X obj 446 437 + 100;
#X connect 1 0 6 0;
#X connect 2 0 1 0;
#X connect 2 1 4 0;
#X connect 4 0 6 0;
#X connect 6 0 10 0;
#X connect 7 0 11 0;
#X connect 8 0 6 0;
#X connect 9 0 6 0;
#X connect 9 1 8 0;
#X connect 10 1 12 0;
#X connect 10 2 12 0;
#X connect 11 0 9 0;
#X connect 12 0 13 0;
#X connect 12 0 16 0;
#X connect 13 0 14 0;
#X connect 13 0 17 0;
#X connect 13 1 27 0;
#X connect 17 0 15 0;
#X connect 20 0 21 1;
#X connect 22 0 21 0;
#X connect 23 0 25 0;
#X connect 23 1 26 0;
#X connect 24 0 21 0;
#X connect 25 0 22 0;
#X connect 25 1 20 0;
#X connect 26 0 24 0;
#X connect 26 1 20 0;
#X connect 27 0 15 1;
#X connect 27 0 23 0;
#X connect 28 0 32 0;
#X connect 29 0 28 0;
#X connect 30 0 31 0;
#X connect 30 0 31 1;
#X connect 32 0 34 0;
#X connect 32 0 35 0;
#X connect 33 0 29 0;
#X connect 35 0 36 0;
#X connect 36 0 30 0;
#X coords 0 0 1 1 85 60 0;
