#N canvas 421 61 1015 817 16;
#X obj 0 143 Force-stick~;
#X obj 600 89 delwrite~ #0d2 1;
#X obj 600 116 delread~ #0d2 0;
#X obj -1 88 delwrite~ #0d1 1;
#X obj 0 115 delread~ #0d1 0;
#N canvas 148 53 243 182 sample-for-GUI 0;
#X obj 135 38 tgl 15 0 empty empty empty 17 7 0 10 -262144 -1 -1 1
1;
#X obj 135 9 loadbang;
#X obj 10 145 outlet;
#X obj 10 114 snapshot~;
#X obj 9 37 inlet~;
#X obj 135 59 metro 40;
#X connect 0 0 5 0;
#X connect 1 0 0 0;
#X connect 3 0 2 0;
#X connect 4 0 3 0;
#X connect 5 0 3 0;
#X restore 1 227 pd sample-for-GUI;
#X obj 4 256 hsl 128 15 -0.15 0.15 0 0 empty empty empty -2 -8 0 10
-262144 -1 -1 7309 1;
#X floatatom 1 298 7 0 0 0 - - -;
#X text 55 268 | here is the wall;
#X text 63 267 ^;
#X text 185 -7 The force stick is connected to ground ''wall'' g by
contact~ link c \, which consists of a spring with stiffness 300 N/m
and a damper with coefficient 1 that engages once the force stick is
pushed to the right beyond the zero postion.;
#X obj 292 115 contact~ c 300 1 0;
#X obj 36 562 line~;
#X obj 36 590 *~;
#X obj 122 563 noise~;
#X obj 227 780 dac~;
#X obj 687 293 //block~ 1;
#X obj 122 188 *~ -1;
#X obj 613 184 delwrite~ #0d3 1;
#X obj 613 211 delread~ #0d3 0;
#X obj 181 167 *~ -1;
#X obj 305 210 contact~ c2 300 1 0;
#X obj 366 455 envgen 200 140 1 0  ;
#X obj 354 621 line~;
#X obj 372 658 *~ 100;
#X obj 352 703 osc~;
#X obj 295 433 bng 15 250 50 0 empty empty empty 17 7 0 10 -262144
-1 -1;
#X floatatom 274 401 5 0 0 0 - - -;
#X obj 296 336 + 1;
#X msg 372 414 1 50 0 0;
#X obj 600 142 grnd~ g 0.02;
#X obj 613 238 grnd~ g2 0.02;
#X obj 294 305 * -1;
#X obj 314 373 threshold 1.03 0 100 0;
#X obj 1 375 threshold 0.03 0 0.8 0;
#X obj -39 420 bng 15 250 50 0 empty empty empty 17 7 0 10 -262144
-1 -1;
#X obj 31 470 pipe 10;
#X obj 136 471 pipe 40;
#X obj 104 748 *~ 0.7;
#X obj -44 638 lop~ 800;
#X obj -44 666 lop~ 800;
#X obj -43 694 lop~ 800;
#X obj 71 634 hip~ 1000;
#X obj 71 663 hip~ 1000;
#X obj 71 692 hip~ 1000;
#X msg 132 508 0 100;
#X msg 31 507 0.3 30;
#X msg -32 508 1 3;
#X obj 597 448 envgen 200 140 1 0  ;
#X msg 552 396 1 50 0 0;
#X obj 598 612 line~;
#X obj 353 736 *~;
#X connect 0 0 5 0;
#X connect 0 0 11 0;
#X connect 0 0 17 0;
#X connect 2 0 30 0;
#X connect 4 0 0 0;
#X connect 5 0 6 0;
#X connect 6 0 7 0;
#X connect 7 0 32 0;
#X connect 7 0 34 0;
#X connect 11 0 3 0;
#X connect 11 1 1 0;
#X connect 12 0 13 0;
#X connect 13 0 39 0;
#X connect 13 0 42 0;
#X connect 14 0 13 1;
#X connect 17 0 21 0;
#X connect 19 0 31 0;
#X connect 20 0 3 0;
#X connect 21 0 20 0;
#X connect 21 1 18 0;
#X connect 22 0 23 0;
#X connect 23 0 24 0;
#X connect 24 0 25 0;
#X connect 25 0 51 0;
#X connect 28 0 27 0;
#X connect 28 0 33 0;
#X connect 29 0 22 0;
#X connect 30 0 11 1;
#X connect 31 0 21 1;
#X connect 32 0 28 0;
#X connect 33 0 22 0;
#X connect 33 0 26 0;
#X connect 33 0 48 0;
#X connect 34 0 35 0;
#X connect 34 0 36 0;
#X connect 34 0 47 0;
#X connect 34 0 37 0;
#X connect 36 0 46 0;
#X connect 37 0 45 0;
#X connect 38 0 15 0;
#X connect 38 0 15 1;
#X connect 39 0 40 0;
#X connect 40 0 41 0;
#X connect 41 0 38 0;
#X connect 42 0 43 0;
#X connect 43 0 44 0;
#X connect 44 0 38 0;
#X connect 45 0 12 0;
#X connect 46 0 12 0;
#X connect 47 0 12 0;
#X connect 48 0 50 0;
#X connect 49 0 48 0;
#X connect 50 0 51 1;
#X connect 51 0 15 0;
#X connect 51 0 15 1;
