#N canvas 19 22 1421 856 10;
#X obj 26 84 cnv 15 60 22 empty empty empty 20 12 0 14 -253938 -66577
0;
#X msg 34 85 open 0;
#N canvas 123 312 525 433 serin 0;
#X obj 180 61 cnv 15 15 15 empty \$0-number-canvas 0 4 8 0 14 -233017
-1 0;
#X obj 200 225 s \$0-number-canvas;
#X obj 60 61 hradio 15 1 1 8 empty empty empty 0 -6 0 8 -225271 -1
-1 0;
#X obj 60 13 inlet;
#X msg 200 202 label \$1;
#X obj 200 180 makefilename %d;
#X obj 59 108 int;
#X msg 59 206 open \$1;
#X obj 59 377 outlet;
#X msg 201 306 set \$1 \$2;
#X obj 59 266 trigger bang anything;
#X obj 201 286 list;
#X obj 383 383 outlet;
#X obj 384 22 netreceive 34567;
#X obj 477 43 tgl 15 0 empty empty empty 0 -6 0 10 -262144 -1 -1 0
1;
#X obj 384 41 bng 15 250 50 0 empty empty empty 0 -6 0 10 -262144 -1
-1;
#X obj 187 24 delay 15000;
#X text 345 379 close;
#X text 209 4 for open/close automation in Makefile;
#N canvas 698 22 318 215 reset 0;
#X obj 65 24 inlet;
#X obj 66 58 bang;
#X obj 66 150 send ARDUINO_TEST_RESET;
#X msg 66 129 0;
#X msg 111 99 1;
#X obj 111 120 send ARDUINO_PINMODE_RESET;
#X connect 0 0 1 0;
#X connect 1 0 3 0;
#X connect 1 0 4 0;
#X connect 3 0 2 0;
#X connect 4 0 5 0;
#X restore 172 111 pd reset guis;
#X connect 2 0 6 0;
#X connect 2 0 19 0;
#X connect 3 0 2 0;
#X connect 4 0 1 0;
#X connect 5 0 4 0;
#X connect 6 0 5 0;
#X connect 6 0 7 0;
#X connect 7 0 10 0;
#X connect 9 0 8 0;
#X connect 10 0 8 0;
#X connect 10 1 11 0;
#X connect 11 0 9 0;
#X connect 13 0 15 0;
#X connect 13 1 14 0;
#X connect 15 0 16 0;
#X connect 15 0 12 0;
#X connect 16 0 2 0;
#X coords 0 -1 1 1 136 17 1 60 60;
#X restore 34 62 pd serin;
#X text 32 42 serial port #;
#X msg 163 84 close;
#X text 32 27 select serial port;
#X obj 164 139 flatspace/comport \$1 9600;
#X obj 156 192 sel 10 13;
#X obj 672 477 hsl 128 15 0 255 0 0 empty empty empty -2 -8 0 10 -262144
-1 -1 12700 1;
#X obj -202 326 delta;
#X obj -202 349 abs;
#X obj -60 326 delta;
#X obj -60 349 abs;
#X obj 145 320 delta;
#X obj 145 343 abs;
#X obj -291 446 envgen 200 140 1 0  ;
#X obj -293 625 line~;
#X obj -269 692 *~;
#X obj -240 627 noise~;
#X obj 188 911 dac~;
#X obj -319 668 print;
#X obj -214 422 hsl 128 15 0 255 0 0 empty empty empty -2 -8 0 10 -262144
-1 -1 0 1;
#X obj -74 446 envgen 200 140 1 0  ;
#X obj -81 624 line~;
#X obj -135 662 print;
#X obj -66 420 hsl 128 15 0 255 0 0 empty empty empty -2 -8 0 10 -262144
-1 -1 0 1;
#X obj -67 665 *~ 100;
#X obj -60 694 osc~;
#X obj -85 713 *~;
#X floatatom 148 474 5 0 0 0 - - -;
#X obj 164 683 osc~;
#X obj 210 572 osc~;
#X obj 210 601 *~;
#X obj 318 392 envgen 200 140 1 0  ;
#X obj 316 545 line~;
#X obj 165 653 +~;
#X obj 166 585 sig~;
#X obj 164 752 *~;
#X obj 309 595 envgen 200 140 1 0  ;
#X obj 307 751 line~;
#X msg 454 309 duration 2000;
#X obj 235 499 * 1.8;
#X obj 245 625 print;
#X obj 228 527 sig~;
#X obj 253 577 *~;
#X floatatom 248 456 5 0 0 0 - - -;
#X obj 104 771 +~;
#X obj 138 784 +~;
#X obj -9 789 vd~ del;
#X obj -11 758 sig~;
#X obj 133 416 hsl 128 15 0 127 0 0 empty empty empty -2 -8 0 10 -262144
-1 -1 0 1;
#X floatatom 622 532 5 0 0 0 - - -;
#X obj 148 809 delwrite~ del 5000;
#X obj 626 475 * 20;
#X obj 147 223 zl group 10;
#X obj 145 267 unpack 0 0 0 0 0 0 0 0 0 0;
#X obj 566 126 - 1;
#X obj 565 155 abs;
#X obj 528 184 threshold 1 0 1 0;
#X obj 677 127 - 1;
#X obj 676 156 abs;
#X obj 644 183 threshold 1 0 1 0;
#X obj 679 44 - 1;
#X obj 678 73 abs;
#X obj 646 100 threshold 1 0 1 0;
#X obj 445 129 - 1;
#X obj 444 158 abs;
#X obj 412 185 threshold 1 0 1 0;
#X obj 447 43 - 1;
#X obj 446 72 abs;
#X obj 414 99 threshold 1 0 1 0;
#X obj 564 44 - 1;
#X obj 563 73 abs;
#X obj 531 100 threshold 1 0 1 0;
#X floatatom 394 805 5 0 0 0 - - -;
#X msg 383 779 440;
#X obj 425 845 * 1;
#X obj 469 873 * 1.12246;
#X obj 505 839 * 1.25992;
#X obj 548 871 * 1.49831;
#X obj 588 837 * 1.68179;
#X obj 629 870 * 2;
#X floatatom 429 895 5 0 0 0 - - -;
#X floatatom 475 897 5 0 0 0 - - -;
#X floatatom 513 896 5 0 0 0 - - -;
#X floatatom 556 898 5 0 0 0 - - -;
#X floatatom 598 897 5 0 0 0 - - -;
#X floatatom 638 898 5 0 0 0 - - -;
#X obj 533 1002 *~;
#X obj 530 927 sig~;
#X obj 492 951 phasor~;
#X msg 691 837 1;
#X msg 745 838 0;
#X obj 613 952 lop~ 500 10;
#X obj 508 974 expr~ $v1 > 0.5;
#X obj 144 390 threshold 50 10 20 10;
#X obj -61 373 average 10;
#X obj -203 373 average 10;
#X obj -203 396 threshold 80 10 20 10;
#X obj -8 821 *~ 0.7;
#X obj 145 366 average 10;
#X obj -61 396 threshold 50 10 20 10;
#X obj 717 945 adsr 1 20 200 30 1000;
#X obj 660 418 average 10;
#X obj 296 866 *~;
#X obj 313 842 osc~ 3;
#X connect 1 0 6 0;
#X connect 2 0 1 0;
#X connect 2 1 4 0;
#X connect 4 0 6 0;
#X connect 6 0 7 0;
#X connect 7 1 54 0;
#X connect 7 2 54 0;
#X connect 9 0 10 0;
#X connect 10 0 97 0;
#X connect 11 0 12 0;
#X connect 12 0 96 0;
#X connect 13 0 14 0;
#X connect 14 0 100 0;
#X connect 15 0 16 0;
#X connect 15 0 20 0;
#X connect 16 0 17 0;
#X connect 17 0 46 0;
#X connect 18 0 17 1;
#X connect 22 0 23 0;
#X connect 22 0 24 0;
#X connect 23 0 26 0;
#X connect 23 0 28 0;
#X connect 26 0 27 0;
#X connect 27 0 28 1;
#X connect 28 0 46 1;
#X connect 29 0 36 0;
#X connect 29 0 41 0;
#X connect 30 0 37 0;
#X connect 31 0 32 0;
#X connect 32 0 35 1;
#X connect 33 0 34 0;
#X connect 33 0 42 0;
#X connect 34 0 44 1;
#X connect 35 0 30 0;
#X connect 36 0 35 0;
#X connect 37 0 47 1;
#X connect 38 0 39 0;
#X connect 39 0 37 1;
#X connect 40 0 33 0;
#X connect 40 0 38 0;
#X connect 41 0 43 0;
#X connect 43 0 31 0;
#X connect 43 0 44 0;
#X connect 44 0 32 1;
#X connect 45 0 41 1;
#X connect 46 0 47 0;
#X connect 47 0 19 0;
#X connect 47 0 19 1;
#X connect 47 0 52 0;
#X connect 48 0 19 0;
#X connect 48 0 19 1;
#X connect 48 0 99 0;
#X connect 49 0 48 0;
#X connect 53 0 49 0;
#X connect 53 0 51 0;
#X connect 54 0 55 0;
#X connect 55 0 9 0;
#X connect 55 1 11 0;
#X connect 55 2 13 0;
#X connect 55 3 103 0;
#X connect 55 4 56 0;
#X connect 55 5 59 0;
#X connect 55 6 62 0;
#X connect 55 7 65 0;
#X connect 55 8 68 0;
#X connect 55 9 71 0;
#X connect 56 0 57 0;
#X connect 57 0 58 0;
#X connect 58 0 86 0;
#X connect 58 0 91 0;
#X connect 58 1 92 0;
#X connect 59 0 60 0;
#X connect 60 0 61 0;
#X connect 61 0 87 0;
#X connect 61 0 91 0;
#X connect 61 1 92 0;
#X connect 62 0 63 0;
#X connect 63 0 64 0;
#X connect 64 0 84 0;
#X connect 64 0 91 0;
#X connect 64 1 92 0;
#X connect 65 0 66 0;
#X connect 66 0 67 0;
#X connect 67 0 85 0;
#X connect 67 0 91 0;
#X connect 67 1 92 0;
#X connect 68 0 69 0;
#X connect 69 0 70 0;
#X connect 70 0 82 0;
#X connect 70 0 91 0;
#X connect 70 1 92 0;
#X connect 71 0 72 0;
#X connect 72 0 73 0;
#X connect 73 0 83 0;
#X connect 73 0 91 0;
#X connect 73 1 92 0;
#X connect 74 0 76 0;
#X connect 74 0 77 0;
#X connect 74 0 78 0;
#X connect 74 0 79 0;
#X connect 74 0 80 0;
#X connect 74 0 81 0;
#X connect 75 0 74 0;
#X connect 76 0 82 0;
#X connect 77 0 83 0;
#X connect 78 0 84 0;
#X connect 79 0 85 0;
#X connect 80 0 86 0;
#X connect 81 0 87 0;
#X connect 82 0 89 0;
#X connect 83 0 89 0;
#X connect 84 0 89 0;
#X connect 85 0 89 0;
#X connect 86 0 89 0;
#X connect 87 0 89 0;
#X connect 88 0 93 0;
#X connect 89 0 90 0;
#X connect 90 0 94 0;
#X connect 91 0 102 0;
#X connect 92 0 102 0;
#X connect 93 0 104 0;
#X connect 94 0 88 0;
#X connect 95 0 33 0;
#X connect 95 0 38 0;
#X connect 96 0 25 0;
#X connect 96 0 101 0;
#X connect 97 0 21 0;
#X connect 97 0 98 0;
#X connect 98 0 15 0;
#X connect 99 0 52 0;
#X connect 100 0 50 0;
#X connect 100 0 95 0;
#X connect 101 0 22 0;
#X connect 102 0 88 1;
#X connect 103 0 8 0;
#X connect 103 0 53 0;
#X connect 104 0 19 0;
#X connect 104 0 19 1;
#X connect 105 0 104 1;
#X coords 0 0 1 1 85 60 0;
