#N canvas 408 25 813 720 10;
#X obj 4 76 cnv 15 60 22 empty empty empty 20 12 0 14 -253938 -66577
0;
#X msg 12 77 open 4;
#N canvas 123 312 525 433 serin 0;
#X obj 180 61 cnv 15 15 15 empty \$0-number-canvas 4 4 8 0 14 -233017
-1 0;
#X obj 200 225 s \$0-number-canvas;
#X obj 60 61 hradio 15 1 1 8 empty empty empty 0 -6 0 8 -225271 -1
-1 4;
#X obj 60 13 inlet;
#X msg 200 202 label \$1;
#X obj 200 180 makefilename %d;
#X obj 59 108 int;
#X msg 59 206 open \$1;
#X obj 59 377 outlet;
#X msg 201 306 set \$1 \$2;
#X obj 59 266 trigger bang anything;
#X obj 201 286 list;
#X obj 383 383 outlet;
#X obj 384 22 netreceive 34567;
#X obj 477 43 tgl 15 0 empty empty empty 0 -6 0 10 -262144 -1 -1 0
1;
#X obj 384 41 bng 15 250 50 0 empty empty empty 0 -6 0 10 -262144 -1
-1;
#X obj 187 24 delay 15000;
#X text 345 379 close;
#X text 209 4 for open/close automation in Makefile;
#N canvas 698 22 318 215 reset 0;
#X obj 65 24 inlet;
#X obj 66 58 bang;
#X obj 66 150 send ARDUINO_TEST_RESET;
#X msg 66 129 0;
#X msg 111 99 1;
#X obj 111 120 send ARDUINO_PINMODE_RESET;
#X connect 0 0 1 0;
#X connect 1 0 3 0;
#X connect 1 0 4 0;
#X connect 3 0 2 0;
#X connect 4 0 5 0;
#X restore 172 111 pd reset guis;
#X connect 2 0 6 0;
#X connect 2 0 19 0;
#X connect 3 0 2 0;
#X connect 4 0 1 0;
#X connect 5 0 4 0;
#X connect 6 0 5 0;
#X connect 6 0 7 0;
#X connect 7 0 10 0;
#X connect 9 0 8 0;
#X connect 10 0 8 0;
#X connect 10 1 11 0;
#X connect 11 0 9 0;
#X connect 13 0 15 0;
#X connect 13 1 14 0;
#X connect 15 0 16 0;
#X connect 15 0 12 0;
#X connect 16 0 2 0;
#X coords 0 -1 1 1 136 17 1 60 60;
#X restore 12 53 pd serin;
#X text 10 34 serial port #;
#X msg 141 76 close;
#X text 10 19 select serial port;
#X floatatom 198 87 5 0 0 0 - - -;
#X obj 200 0 max -127;
#X text 239 -66 This is uncalibrated in Newtons. We are mapping an
assumed;
#X text 239 -55 input range of -10N to 10N to -127 to 127;
#X obj 200 -22 min 127;
#X obj 682 521 delay 0;
#X obj 710 -144 bang;
#X msg 41 497 \$1 10;
#X obj 14 440 * 0.1;
#X text 53 440 Map to output range approx in "meters";
#X obj 41 519 line~;
#X obj 16 -131 block~ 1;
#X obj 41 541 outlet~;
#X text 79 522 Convert to audio-rate signal for convenience of HSP
modeling;
#X obj 200 -67 / 10;
#X obj 14 464 t b f;
#X obj 200 -90 snapshot~;
#X text 673 -74 Use input from Arduino;
#X text 673 -58 to also trigger output;
#X text 673 -42 to Arduino.;
#X text 257 -12 Saturate the values;
#X obj 200 -112 inlet~;
#N canvas 145 147 322 192 downsample-for-GUI-display 0;
#X obj 264 77 inlet;
#X obj 225 113 float 0;
#X obj 225 156 outlet;
#X obj 137 70 inlet;
#X obj 98 106 float 0;
#X obj 98 149 outlet;
#X obj 10 35 tgl 15 0 empty empty empty 17 7 0 10 -262144 -1 -1 1 1
;
#X obj 10 12 loadbang;
#X obj 10 56 metro 100;
#X connect 0 0 1 1;
#X connect 1 0 2 0;
#X connect 3 0 4 1;
#X connect 4 0 5 0;
#X connect 6 0 8 0;
#X connect 7 0 6 0;
#X connect 8 0 4 0;
#X connect 8 0 1 0;
#X restore 237 32 pd downsample-for-GUI-display;
#X floatatom 241 58 5 0 0 0 - - -;
#X obj 200 -44 * -127;
#X obj 345 -143 loadbang;
#X obj 345 -121 tgl 15 0 empty empty empty 17 7 0 10 -262144 -1 -1
1 1;
#X text 649 -100 Alternative to Metro;
#X text 649 -89 would be:;
#N canvas 145 147 322 192 downsample-for-GUI-display 0;
#X obj 264 77 inlet;
#X obj 225 113 float 0;
#X obj 225 156 outlet;
#X obj 137 70 inlet;
#X obj 98 106 float 0;
#X obj 98 149 outlet;
#X obj 10 35 tgl 15 0 empty empty empty 17 7 0 10 -262144 -1 -1 1 1
;
#X obj 10 12 loadbang;
#X obj 10 56 metro 100;
#X connect 0 0 1 1;
#X connect 1 0 2 0;
#X connect 3 0 4 1;
#X connect 4 0 5 0;
#X connect 6 0 8 0;
#X connect 7 0 6 0;
#X connect 8 0 4 0;
#X connect 8 0 1 0;
#X restore 88 325 pd downsample-for-GUI-display;
#X floatatom 88 348 10 0 0 0 - - -;
#X floatatom 259 346 5 0 0 0 - - -;
#N canvas 159 171 317 372 find-header 0;
#X obj 18 13 inlet;
#X obj 46 253 counter;
#X obj 96 159 loadbang;
#X obj 96 182 bng 15 250 50 0 empty empty empty 17 7 0 10 -262144 -1
-1;
#X obj 18 338 outlet;
#X obj 94 283 outlet;
#X text 100 22 FINDS HEADER AND COUNTS INDICES;
#X obj 65 102 sel 255;
#X obj 65 126 bng 15 250 50 0 empty empty empty 17 7 0 10 -262144 -1
-1;
#X obj 84 225 t f f;
#X obj 37 207 bng 15 250 50 0 empty empty empty 17 7 0 10 -262144 -1
-1;
#X floatatom 46 281 5 0 0 0 - - -;
#X text 100 32 FOR DATA BYTES THEREAFTER;
#X text 169 190 0: Header 0xFF = 255;
#X text 169 202 1: Encoder MSB;
#X text 169 215 2: Encoder LSB;
#X text 169 228 3: FSR MSB;
#X text 169 241 4: FSR LSB;
#X obj 18 35 t f b f;
#X text 84 127 Set back to minimum;
#X msg 96 203 4;
#X connect 0 0 18 0;
#X connect 1 0 5 0;
#X connect 1 0 11 0;
#X connect 2 0 3 0;
#X connect 3 0 20 0;
#X connect 7 0 8 0;
#X connect 8 0 1 2;
#X connect 9 0 1 3;
#X connect 9 1 1 4;
#X connect 10 0 1 0;
#X connect 18 0 4 0;
#X connect 18 1 10 0;
#X connect 18 2 7 0;
#X connect 20 0 9 0;
#X restore 142 162 pd find-header;
#N canvas 194 105 307 354 concat-encoder-bytes 0;
#X obj 119 16 inlet;
#X obj 78 310 outlet;
#X obj 166 146 spigot;
#X text 209 147 MSB;
#N canvas 594 292 249 231 conv-to-signed 0;
#X obj 12 132 spigot;
#X obj 12 36 t f f;
#X obj 116 144 expr 1-$f1;
#X obj 83 166 spigot;
#X obj 12 203 outlet;
#X obj 12 12 inlet;
#X text 70 21 Cast a 4-bit unsigned number;
#X text 70 33 as a signed number.;
#X obj 71 82 > 15;
#X obj 12 107 - 32;
#X connect 0 0 4 0;
#X connect 1 0 3 0;
#X connect 1 0 9 0;
#X connect 1 1 8 0;
#X connect 2 0 3 1;
#X connect 3 0 4 0;
#X connect 5 0 1 0;
#X connect 8 0 2 0;
#X connect 8 0 0 1;
#X connect 9 0 0 0;
#X restore 166 169 pd conv-to-signed;
#X obj 143 240 + 0;
#X obj 29 165 spigot;
#X text 72 166 LSB;
#X obj 209 11 inlet;
#X obj 166 192 * 128;
#X obj 216 90 == 1;
#X obj 63 138 == 2;
#X connect 0 0 2 0;
#X connect 0 0 6 0;
#X connect 2 0 4 0;
#X connect 4 0 9 0;
#X connect 5 0 1 0;
#X connect 6 0 5 0;
#X connect 8 0 10 0;
#X connect 8 0 11 0;
#X connect 9 0 5 1;
#X connect 10 0 2 1;
#X connect 11 0 6 1;
#X restore 14 244 pd concat-encoder-bytes;
#N canvas 194 105 307 354 concat-FSR-bytes 0;
#X obj 119 16 inlet;
#X obj 78 310 outlet;
#X obj 166 146 spigot;
#X text 209 147 MSB;
#X obj 143 240 + 0;
#X obj 29 165 spigot;
#X text 72 166 LSB;
#X obj 209 11 inlet;
#X obj 166 192 * 128;
#X obj 199 123 == 3;
#X obj 62 142 == 4;
#X connect 0 0 2 0;
#X connect 0 0 5 0;
#X connect 2 0 8 0;
#X connect 4 0 1 0;
#X connect 5 0 4 0;
#X connect 7 0 9 0;
#X connect 7 0 10 0;
#X connect 8 0 4 1;
#X connect 9 0 2 1;
#X connect 10 0 5 1;
#X restore 259 259 pd concat-FSR-bytes;
#X text 86 365 Encoder;
#X obj 338 315 s FSR-pressure;
#X obj 338 293 / 10.23;
#X text 430 309 Assuming 0N to 100N;
#X text 430 322 (This is completely uncalibrated!);
#X floatatom 340 409 5 0 0 0 - - -;
#N canvas 0 0 272 197 calculate-how-often-getting-data-in-serial 0
;
#X obj 17 12 inlet;
#X obj 17 168 outlet;
#X obj 17 56 realtime;
#X obj 17 77 t f b;
#X obj 50 100 counter;
#X obj 98 41 loadbang;
#X obj 50 123 == 0;
#X obj 17 146 spigot;
#X obj 17 34 t b b;
#X text 118 128 Take every 100 times;
#X msg 98 66 100;
#X connect 0 0 8 0;
#X connect 2 0 3 0;
#X connect 3 0 7 0;
#X connect 3 1 4 0;
#X connect 4 0 6 0;
#X connect 5 0 10 0;
#X connect 6 0 7 1;
#X connect 7 0 1 0;
#X connect 8 0 2 0;
#X connect 8 1 2 1;
#X connect 10 0 4 4;
#X connect 10 0 4 3;
#X restore 340 387 pd calculate-how-often-getting-data-in-serial;
#X text 374 408 ms;
#X text 257 363 FSR value;
#X obj 142 132 comport \$1 57600;
#X msg 285 103 pollintervall 0;
#X text 339 371 Can use this to see how well the driver is running
...;
#X obj 14 418 / 256;
#X obj 345 -101 metro 2;
#X connect 1 0 50 0;
#X connect 2 0 1 0;
#X connect 2 1 4 0;
#X connect 4 0 50 0;
#X connect 6 0 50 0;
#X connect 7 0 28 0;
#X connect 7 0 50 0;
#X connect 10 0 7 0;
#X connect 11 0 12 0;
#X connect 13 0 16 0;
#X connect 14 0 21 0;
#X connect 16 0 18 0;
#X connect 20 0 30 0;
#X connect 21 0 11 0;
#X connect 21 1 13 0;
#X connect 22 0 20 0;
#X connect 27 0 22 0;
#X connect 28 0 29 0;
#X connect 30 0 10 0;
#X connect 31 0 32 0;
#X connect 32 0 54 0;
#X connect 35 0 36 0;
#X connect 35 1 37 0;
#X connect 38 0 40 0;
#X connect 38 0 39 0;
#X connect 38 1 40 1;
#X connect 38 1 39 1;
#X connect 39 0 35 0;
#X connect 39 0 53 0;
#X connect 40 0 35 1;
#X connect 40 0 43 0;
#X connect 43 0 42 0;
#X connect 47 0 46 0;
#X connect 50 0 38 0;
#X connect 51 0 50 0;
#X connect 53 0 14 0;
#X connect 54 0 22 0;
